<?xml version="1.0" encoding="UTF-8"?>
<svg width="60px" height="60px" viewBox="0 0 60 60" version="1.1" xmlns="http://www.w3.org/2000/svg">
    <!-- Generator: Sketch 55.1 (78136) - https://sketchapp.com -->
    <title>ios logo</title>
    <desc>Created with Sketch.</desc>
    <g id="Page-1" stroke="none" stroke-width="1" fill="none" fill-rule="evenodd">
        <g id="ios-logo" transform="translate(-0.000000, 0.000000)">
            <g id="App-Icon-60-x-60" fill="#F09199">
                <path d="M17.3062251,-6.99192208e-16 L42.6937749,6.99192208e-16 C48.7115264,-4.06250808e-16 50.8937085,0.626572875 53.0937085,1.80314575 C55.2937085,2.97971863 57.0202814,4.7062915 58.1968542,6.9062915 C59.3734271,9.1062915 60,11.2884736 60,17.3062251 L60,42.6937749 C60,48.7115264 59.3734271,50.8937085 58.1968542,53.0937085 C57.0202814,55.2937085 55.2937085,57.0202814 53.0937085,58.1968542 C50.8937085,59.3734271 48.7115264,60 42.6937749,60 L17.3062251,60 C11.2884736,60 9.1062915,59.3734271 6.9062915,58.1968542 C4.7062915,57.0202814 2.97971863,55.2937085 1.80314575,53.0937085 C0.626572875,50.8937085 2.70833872e-16,48.7115264 -4.66128138e-16,42.6937749 L4.66128138e-16,17.3062251 C-2.70833872e-16,11.2884736 0.626572875,9.1062915 1.80314575,6.9062915 C2.97971863,4.7062915 4.7062915,2.97971863 6.9062915,1.80314575 C9.1062915,0.626572875 11.2884736,4.06250808e-16 17.3062251,-6.99192208e-16 Z"
                      id="App-Icon"></path>
            </g>
            <g id="glasses-copy" transform="translate(10.000000, 14.000000)" fill="#FFFFFF">
                <path d="M8,41 L8,2 L13.8189749,2 C16.4107727,2 18.4758193,2.20207052 20.0141767,2.60621762 C21.5692553,3.01036472 22.8818558,3.69235271 23.9520174,4.65220207 C25.0389004,5.64573036 25.9000332,6.88341228 26.5354417,8.36528497 C27.1875714,9.86399713 27.5136314,11.379526 27.5136314,12.9119171 C27.5136314,15.7072679 26.4518463,18.0731768 24.3282443,20.009715 C26.3849612,20.7169724 28.0069006,21.9546544 29.1941112,23.7227979 C30.3980431,25.474102 31,27.5116464 31,29.8354922 C31,32.8834349 29.9298544,35.459834 27.7895311,37.5647668 C26.5019928,38.8614054 25.0556242,39.7623032 23.4503817,40.267487 C21.6946477,40.7558315 19.4958329,41 16.8538713,41 L8,41 Z M13.8440567,18.7622808 L15.6750273,18.7622808 C17.8487931,18.7622808 19.4414708,18.2781535 20.453108,17.3098845 C21.4647452,16.3416154 21.9705562,14.9144923 21.9705562,13.0284725 C21.9705562,11.1929711 21.4522044,9.79952652 20.4154853,8.84809689 C19.3787662,7.89666726 17.8738739,7.42095959 15.9007634,7.42095959 L13.8440567,7.42095959 L13.8440567,18.7622808 Z M13.8440567,35.4837834 L17.4558342,35.4837834 C20.0977958,35.4837834 22.0374347,34.9617679 23.2748092,33.9177212 C24.5790687,32.7894773 25.2311887,31.3581444 25.2311887,29.6236798 C25.2311887,27.9397335 24.6041502,26.5252399 23.3500545,25.3801565 C22.1294014,24.2519125 19.9473076,23.687799 16.8037077,23.687799 L13.8440567,23.687799 L13.8440567,35.4837834 Z"
                      id="B" fill-rule="nonzero"
                      transform="translate(19.500000, 21.500000) rotate(90.000000) translate(-19.500000, -21.500000) "></path>
                <polyline id="Path-3-Copy-2" stroke="#FFFFFF" stroke-linecap="round"
                          points="12 2.45028579 9.51271529 0 1.03477478 9.58769226 5.83855727 10 9.51271529 0.860565169"></polyline>
                <polyline id="Path-3-Copy" stroke="#FFFFFF" stroke-linecap="round"
                          transform="translate(31.947015, 5.000000) scale(-1, 1) translate(-31.947015, -5.000000) "
                          points="37.8940305 2.45028579 35.3792831 0 26 9.58151532 31.6645578 10 35.3792831 0.860565169"></polyline>
            </g>
        </g>
    </g>
</svg>