<?xml version="1.0" encoding="UTF-8"?>
<svg width="150px" height="150px" viewBox="0 0 150 150" version="1.1"
  xmlns="http://www.w3.org/2000/svg">
  <!-- Generator: Sketch 55 (78076) by andrew - https://sketchapp.com -->
  <title>logo</title>
  <desc>Created with Sketch.</desc>
  <g id="Page-1" stroke="none" stroke-width="1" fill="none" fill-rule="evenodd">
    <g id="logo">
      <circle id="Oval" fill="#F09199" cx="75" cy="75" r="75"></circle>
      <g id="glasses" transform="translate(35.000000, 39.000000)" fill="#FFFFFF">
        <path
          d="M15.3076172,80.0830078 L15.3076172,4.69238281 L26.6357422,4.69238281 C31.6813403,4.69238281 35.7014824,5.08300391 38.6962891,5.86425781 C41.7236479,6.64551172 44.2789609,7.96385791 46.3623047,9.81933594 C48.4782007,11.7399185 50.1546162,14.1324727 51.3916016,16.9970703 C52.6611392,19.8942202 53.2958984,22.8238784 53.2958984,25.7861328 C53.2958984,31.1898057 51.2288618,35.7633276 47.0947266,39.5068359 C51.0986528,40.8740303 54.2561733,43.2665845 56.5673828,46.6845703 C58.9111445,50.0700039 60.0830078,54.0087666 60.0830078,58.5009766 C60.0830078,64.3929331 57.9996953,69.3733521 53.8330078,73.4423828 C51.3264849,75.9489058 48.5107578,77.6904248 45.3857422,78.6669922 C41.9677563,79.6110073 37.6872002,80.0830078 32.5439453,80.0830078 L15.3076172,80.0830078 Z M26.6845703,37.0954297 L30.2490234,37.0954297 C34.4808154,37.0954297 37.5813704,36.1595667 39.5507812,34.2878125 C41.5201921,32.4160583 42.5048828,29.6572969 42.5048828,26.0114453 C42.5048828,22.4632505 41.4957783,19.7695925 39.4775391,17.9303906 C37.4592998,16.0911887 34.5296416,15.1716016 30.6884766,15.1716016 L26.6845703,15.1716016 L26.6845703,37.0954297 Z M26.6845703,69.4196484 L33.7158203,69.4196484 C38.8590752,69.4196484 42.6350791,68.4105439 45.0439453,66.3923047 C47.5830205,64.2113042 48.8525391,61.4444048 48.8525391,58.0915234 C48.8525391,54.8362988 47.6318481,52.1019512 45.1904297,49.8883984 C42.8141157,47.7073979 38.5661113,46.6169141 32.4462891,46.6169141 L26.6845703,46.6169141 L26.6845703,69.4196484 Z"
          id="B" fill-rule="nonzero"
          transform="translate(37.695312, 42.387695) rotate(90.000000) translate(-37.695312, -42.387695) "></path>
        <polyline id="Path-3-Copy" stroke="#FFFFFF" stroke-linecap="round"
          transform="translate(63.167091, 10.700000) scale(-1, 1) translate(-63.167091, -10.700000) "
          points="74.3341827 5.60057159 69.6918002 0.7 52 19.6050873 62.8341827 20.7 69.6918002 2.42113034"></polyline>
        <polyline id="Path-3-Copy-2" stroke="#FFFFFF" stroke-linecap="round"
          points="23.335495 5.90057159 18.6931125 1 1.04196804 19.6303086 11.835495 21 18.6931125 2.72113034"></polyline>
      </g>
    </g>
  </g>
</svg>
