<?xml version="1.0" encoding="UTF-8"?>
<svg width="60px" height="60px" viewBox="0 0 60 60" version="1.1" xmlns="http://www.w3.org/2000/svg">
    <!-- Generator: Sketch 55.2 (78181) - https://sketchapp.com -->
    <title>munin_logo_rounded</title>
    <desc>Created with Sketch.</desc>
    <g id="munin_logo_rounded" stroke="none" stroke-width="1" fill="none" fill-rule="evenodd">
        <g id="bangimin-logo-full" transform="translate(0.000000, 1.000000)" fill-rule="nonzero">
            <rect id="Rectangle" fill="#F09199" x="0" y="-1" width="60" height="60" rx="13"></rect>
            <g id="ios-logo" transform="translate(10.000000, 14.000000)" fill="#FFFFFF">
                <g id="glasses-copy">
                    <path d="M31.8210492,9 L28.5138952,0.860565169 L26,2.45028579 L28.5138952,0 L39,9 L39,14.8189749 C39,17.4107727 38.7979295,19.4758193 38.3937824,21.0141767 C37.9896353,22.5692553 37.3076473,23.8818558 36.3477979,24.9520174 C35.3542696,26.0389004 34.1165877,26.9000332 32.634715,27.5354417 C31.1360029,28.1875714 29.620474,28.5136314 28.0880829,28.5136314 C25.2927321,28.5136314 22.9268232,27.4518463 20.990285,25.3282443 C20.2830276,27.3849612 19.0453456,29.0069006 17.2772021,30.1941112 C15.525898,31.3980431 13.4883536,32 11.1645078,32 C8.1165651,32 5.540166,30.9298544 3.4352332,28.7895311 C2.1385946,27.5019928 1.2376968,26.0556242 0.732513,24.4503817 C0.2441685,22.6946477 0,20.4958329 0,17.8538713 L0,9 L10.4861048,0 L13,2.45028579 L10.4861048,0.860565169 L7.17895075,9 L31.8210492,9 Z M22.2377192,14.8440567 L22.2377192,16.6750273 C22.2377192,18.8487931 22.7218465,20.4414708 23.6901155,21.453108 C24.6583846,22.4647452 26.0855077,22.9705562 27.9715275,22.9705562 C29.8070289,22.9705562 31.2004735,22.4522044 32.1519031,21.4154853 C33.1033327,20.3787662 33.5790404,18.8738739 33.5790404,16.9007634 L33.5790404,14.8440567 L22.2377192,14.8440567 Z M5.5162166,14.8440567 L5.5162166,18.4558342 C5.5162166,21.0977958 6.0382321,23.0374347 7.0822788,24.2748092 C8.2105227,25.5790687 9.6418556,26.2311887 11.3763202,26.2311887 C13.0602665,26.2311887 14.4747601,25.6041502 15.6198435,24.3500545 C16.7480875,23.1294014 17.312201,20.9473076 17.312201,17.8037077 L17.312201,14.8440567 L5.5162166,14.8440567 Z"
                          id="Combined-Shape"></path>
                </g>
            </g>
        </g>
    </g>
</svg>