<?xml version="1.0" encoding="UTF-8"?>
<svg width="60px" height="60px" viewBox="0 0 60 60" version="1.1" xmlns="http://www.w3.org/2000/svg">
    <!-- Generator: Sketch 55.2 (78181) - https://sketchapp.com -->
    <title>munin_logo_rounded_full</title>
    <desc>Created with Sketch.</desc>
    <g id="Page-1" stroke="none" stroke-width="1" fill="none" fill-rule="evenodd">
        <g id="munin_logo_rounded_full" fill-rule="nonzero">
            <rect id="Rectangle" fill="#F09199" x="0" y="0" width="60" height="60" rx="13"></rect>
            <g id="Group-3" transform="translate(13.000000, 15.000000)" fill="#FFFFFF">
                <g id="Group-2" stroke-linecap="round" transform="translate(1.000000, 0.000000)" stroke="#FFFFFF">
                    <g id="Group">
                        <g id="ios-logo">
                            <g id="glasses-copy">
                                <polyline id="Path-3-Copy-2"
                                          points="11.9652252 2.45028579 9.47794051 0 0.479278564 9.81044006 1 13.4 5.80378249 10 9.47794051 0.860565169"></polyline>
                                <polyline id="Path-3-Copy"
                                          transform="translate(26.193209, 6.021746) scale(-1, 1) translate(-26.193209, -6.021746) "
                                          points="32.3864179 2.45028579 29.8716705 0 20 9.79391025 20.659223 12.0434913 26.1569452 10 29.8716705 0.860565169"></polyline>
                            </g>
                        </g>
                    </g>
                </g>
                <path d="M7,3.25 C8.066672,3.183333 9.3166595,3.12500025 10.75,3.075 C12.1833405,3.02499975 13.5,3 14.7,3 C17.6666815,3 20.049991,3.72499275 21.85,5.175 C23.650009,6.62500725 24.55,8.7666525 24.55,11.6 C24.55,12.93334 24.2750027,14.1416612 23.725,15.225 C23.1749972,16.3083387 22.3166725,17.2333295 21.15,18 C23.15001,18.66667 24.716661,19.7166595 25.85,21.15 C26.983339,22.5833405 27.55,24.399989 27.55,26.6 C27.55,28 27.3000025,29.3166605 26.8,30.55 C26.2999975,31.7833395 25.5333385,32.866662 24.5,33.8 C23.4666615,34.733338 22.183341,35.4749973 20.65,36.025 C19.116659,36.5750027 17.316677,36.85 15.25,36.85 C13.6166585,36.85 12.100007,36.7916673 10.7,36.675 C9.299993,36.5583328 8.066672,36.4166675 7,36.25 L7,3.25 Z M15.1,33.55 C17.8000135,33.55 19.8583262,32.9250063 21.275,31.675 C22.6916737,30.4249937 23.4,28.600012 23.4,26.2 C23.4,24.2999905 22.7583397,22.7916723 21.475,21.675 C20.1916602,20.5583278 18.0333485,20 15,20 C14.266663,20 13.5416702,20.0083332 12.825,20.025 C12.1083297,20.0416668 11.41667,20.0666665 10.75,20.1 L10.75,33.4 C12.0500065,33.5 13.499992,33.55 15.1,33.55 Z M12.8,17.15 C14.9000105,17.15 16.5249942,16.616672 17.675,15.55 C18.8250058,14.483328 19.4,13.0333425 19.4,11.2 C19.4,9.733326 19.000004,8.5500045 18.2,7.65 C17.399996,6.7499955 16.00001,6.3 14,6.3 C13.266663,6.3 12.5416702,6.30833325 11.825,6.325 C11.1083297,6.34166675 10.41667,6.3666665 9.75,6.4 L9.75,17.1 C10.216669,17.1333335 10.7083308,17.15 11.225,17.15 C11.7416693,17.15 12.266664,17.15 12.8,17.15 Z"
                      id="B"
                      transform="translate(17.275000, 19.925000) rotate(90.000000) translate(-17.275000, -19.925000) "></path>
            </g>
        </g>
    </g>
</svg>